<?xml version="1.0" encoding="UTF-8" standalone="no"?>
<!-- Created with Inkscape (http://www.inkscape.org/) -->

<svg
  width="160.66206mm"
  height="13.153918mm"
  viewBox="0 0 160.66206 13.153918"
  version="1.1"
  id="svg1"
  xml:space="preserve"
  inkscape:version="1.3.2 (091e20e, 2023-11-25, custom)"
  sodipodi:docname="Stream Stash Logo text around black.svg"
  xmlns:inkscape="http://www.inkscape.org/namespaces/inkscape"
  xmlns:sodipodi="http://sodipodi.sourceforge.net/DTD/sodipodi-0.dtd"
  xmlns="http://www.w3.org/2000/svg"
  xmlns:svg="http://www.w3.org/2000/svg"><sodipodi:namedview
     id="namedview1"
     pagecolor="#ffffff"
     bordercolor="#999999"
     borderopacity="1"
     inkscape:showpageshadow="true"
     inkscape:pageopacity="0"
     inkscape:pagecheckerboard="false"
     inkscape:deskcolor="#d1d1d1"
     inkscape:document-units="mm"
     showborder="true"
     borderlayer="true"
     inkscape:zoom="1.4878904"
     inkscape:cx="537.67401"
     inkscape:cy="280.59862"
     inkscape:window-width="2560"
     inkscape:window-height="1377"
     inkscape:window-x="2552"
     inkscape:window-y="-8"
     inkscape:window-maximized="1"
     inkscape:current-layer="layer1" />
  <defs
    id="defs1"><linearGradient
       id="swatch6"
       inkscape:swatch="solid"><stop
         style="stop-color:#000000;stop-opacity:1;"
         offset="0"
         id="stop6" /></linearGradient></defs>
  <g
    inkscape:label="Ebene 1"
    inkscape:groupmode="layer"
    id="layer1"
    style="display:inline"><path
       d="M 5.2492477,0 C 2.9503525,0 0,0.70783321 0,3.5642265 c 0,4.2908519 7.0658133,3.6393943 7.0658133,5.7628964 0,1.3029171 -1.1275246,1.7601891 -2.868921,1.7601891 -0.5574973,0 -1.1149952,-0.05637 -1.6474366,-0.150337 L 2.3552711,8.6944577 H 0.01879193 V 12.446605 C 1.378084,12.791126 3.138273,13.07927 4.3660206,13.07927 c 3.7521469,0.01879 5.4810155,-1.415668 5.4810155,-3.7333548 0,-4.3848123 -7.0532841,-3.5830188 -7.0532841,-6.0510419 0,-1.0523554 1.0147713,-1.3780842 2.4367034,-1.3780842 0.613873,0 1.2214837,0.056374 1.8165656,0.1503373 L 7.2412049,4.3472288 H 9.4586671 V 0.59508183 C 8.3311437,0.28814536 6.7588756,0 5.2492477,0 Z M 11.087312,0.13780818 V 4.4411891 h 2.092182 l 0.150335,-2.048334 h 2.718584 v 8.3123519 h -1.265331 v 2.261311 h 5.249247 v -2.261311 h -1.24654 V 2.3928551 h 2.699792 l 0.175393,2.048334 H 23.7281 V 0.13780818 Z M 26.158538,2.3364794 v 8.4251036 h -1.240274 v 2.204935 h 5.111437 V 10.761583 H 28.902178 V 8.2559763 h 2.217464 l 2.53066,4.7105417 h 3.194654 V 10.761583 H 35.354115 L 33.744264,7.8550784 c 1.534688,-0.5950819 2.493082,-1.7226054 2.493082,-3.6957702 0,-2.9127689 -2.110976,-4.02150002 -5.08012,-4.02150002 H 24.918264 V 2.3364794 Z m 2.743638,0 h 2.25505 c 1.497103,0 2.511872,0.5199126 2.511872,1.9919571 0,1.4532522 -1.033564,2.0107494 -2.511872,2.0107494 h -2.25505 z M 37.884784,12.966518 H 48.470975 V 8.7696256 h -1.99196 l -0.16913,1.9355814 h -4.44119 V 7.4917662 h 3.676983 V 5.6877284 H 41.868695 V 2.3928551 h 4.44119 l 0.16913,1.9355814 h 1.99196 V 0.13780818 H 37.884784 V 2.3928551 h 1.240273 v 8.3123519 h -1.240273 z m 16.543268,0 v -2.204935 h -1.165105 l 0.551231,-1.6223807 h 4.578998 l 0.557498,1.6223807 h -1.152576 v 2.204935 h 5.117699 v -2.204935 h -1.26533 L 57.873262,0.13780818 H 54.352886 L 50.563155,10.761583 h -1.246542 v 2.204935 z m 1.685022,-10.5360796 1.647437,4.8483504 h -3.313664 z m 7.642107,8.2747686 v 2.261311 h 5.111437 V 10.705207 H 67.739093 V 2.7561684 l 3.063104,8.4877446 h 2.298895 l 3.063105,-8.4877446 v 7.9490386 h -1.10873 v 2.261311 h 5.111438 V 10.705207 H 78.901573 V 2.3928551 h 1.265332 V 0.13780818 H 74.786116 L 71.954778,7.8738707 69.11718,0.13780818 H 63.755181 V 2.3928551 h 1.246536 v 8.3123519 z"
       id="path6"
       style="display:inline;color-interpolation-filters:sRGB;stroke-width:0.626401;fill:#ffffff;fill-opacity:1" />
    <path
      d="M 104.24701,0 C 101.94781,0 99,0.71154148 99,3.5625484 c 0,4.2886098 7.06701,3.6399909 7.06701,5.7649351 0,1.2972335 -1.13266,1.7570705 -2.87037,1.7570705 -0.55665,0 -1.1133,-0.05324 -1.65059,-0.150052 L 101.35728,8.6933873 H 99.01936 V 12.44471 c 1.36015,0.343672 3.12207,0.634097 4.3467,0.634097 3.75132,0.01937 5.4745,-1.418241 5.4745,-3.7319634 0,-4.3854148 -7.0428,-3.5819058 -7.0428,-6.0505177 0,-1.0552134 1.01165,-1.3795207 2.42989,-1.3795207 0.61473,0 1.22462,0.058085 1.82,0.1548949 l 0.18877,2.2749928 h 2.22176 V 0.59537133 C 107.33036,0.29042513 105.75722,0 104.24701,0 Z m 5.83754,0.13553176 V 4.4435024 h 2.08622 l 0.1549,-2.047495 h 2.72031 v 8.3061546 h -1.26335 v 2.260475 h 5.24217 v -2.260475 h -1.24399 V 2.3960074 h 2.70096 l 0.16942,2.047495 h 2.0717 V 0.13553176 Z M 126.75979,12.962637 v -2.20239 h -1.16654 l 0.55664,-1.6263782 h 4.5742 l 0.55181,1.6263782 h -1.14717 v 2.20239 h 5.11147 v -2.20239 h -1.26335 L 130.20617,0.13553176 h -3.52383 L 122.8923,10.760247 h -1.24399 v 2.20239 z M 128.44426,2.4347277 130.09,7.2751462 h -3.31085 z M 141.42625,0 c -2.29919,0 -5.24701,0.71154148 -5.24701,3.5625484 0,4.2886098 7.06217,3.6399909 7.06217,5.7649351 0,1.2972335 -1.12782,1.7570705 -2.87037,1.7570705 -0.55664,0 -1.10845,-0.05324 -1.64574,-0.150052 L 138.53169,8.6933873 H 136.1986 V 12.44471 c 1.36017,0.343672 3.12207,0.634097 4.3467,0.634097 3.75132,0.01937 5.47451,-1.418241 5.47451,-3.7319634 0,-4.3854148 -7.04765,-3.5819058 -7.04765,-6.0505177 0,-1.0552134 1.01649,-1.3795207 2.43473,-1.3795207 0.60989,0 1.22463,0.058085 1.81516,0.1548949 l 0.19362,2.2749928 h 2.22175 V 0.59537133 C 144.50476,0.29042513 142.93646,0 141.42625,0 Z m 5.83754,0.13553176 V 2.3960074 h 1.24399 v 8.3061546 h -1.24399 v 2.260475 h 5.22765 v -2.260475 h -1.24398 V 7.507486 h 5.41642 v 3.194676 h -1.24398 v 2.260475 h 5.24217 v -2.260475 h -1.26335 V 2.3960074 h 1.26335 V 0.13553176 H 155.4199 V 2.3960074 h 1.24398 v 3.1753113 h -5.41642 V 2.3960074 h 1.24398 V 0.13553176 Z"
      id="path7"
      style="color-interpolation-filters:sRGB;stroke-width:0.48404;fill:#ffffff;fill-opacity:1"/>
    <g
      id="g14"
      style="display:inline;overflow:visible;color-interpolation-filters:sRGB"
      transform="matrix(0.11637334,0,0,0.11637334,83,0.0805368)"
      inkscape:label="Logo"><path
         d="m 82.78,73.42 a 11.52,11.52 0 0 0 -0.82,-17 11.72,11.72 0 0 0 -15.69,1 l -4.44,4.44 -4.68,4.64 A 27.51,27.51 0 1 1 18.25,27.6 l 4.67,-4.68 A 13.42,13.42 0 0 0 13.43,0 13.43,13.43 0 0 0 0,13.43 v 85.48 a 13.43,13.43 0 0 0 13.43,13.43 H 38.3 a 13.43,13.43 0 0 0 9.5,-3.93 z"
         fill="#15b788"
         id="path3" />
      <path
        d="m 74,0 a 13.43,13.43 0 0 0 -9.5,3.93 l -35,35 a 11.525875,11.525875 0 0 0 16.34,16.26 l 4.67,-4.68 4.27,-4.26 C 65.36,35.66 82.6,35 93.5,45.26 a 27.53,27.53 0 0 1 0.59,39.48 l -4.67,4.68 a 13.42,13.42 0 0 0 9.49,22.92 13.43,13.43 0 0 0 13.43,-13.43 V 13.43 A 13.43,13.43 0 0 0 98.91,0 Z"
        fill="#1395ba"
        id="path4"/></g></g></svg>
